<svg xmlns="http://www.w3.org/2000/svg" viewBox="6273.246 4262.488 22 22">
  <defs>
    <style>
      .cls-1 {
        fill: #cb333b;
      }
    </style>
  </defs>
  <g id="Group_34" data-name="Group 34" transform="translate(6273.246 4262.488)">
    <path id="Path_53" data-name="Path 53" class="cls-1" d="M.344,7.3H4.9V22H.344ZM2.664,0A2.677,2.677,0,0,1,5.328,2.664,2.677,2.677,0,0,1,2.664,5.328,2.706,2.706,0,0,1,0,2.664,2.677,2.677,0,0,1,2.664,0"/>
    <path id="Path_54" data-name="Path 54" class="cls-1" d="M18.1,16.544h4.383v2.02h.043a4.791,4.791,0,0,1,4.34-2.363c4.6,0,5.457,3.051,5.457,7v8.035H27.768V24.063c0-1.719-.043-3.91-2.363-3.91-2.363,0-2.75,1.848-2.75,3.781V31.2H18.1Z" transform="translate(-10.323 -9.239)"/>
  </g>
</svg>
