<svg xmlns="http://www.w3.org/2000/svg" viewBox="-7927.216 -9973.335 264.974 70.448"><defs><style>.a{fill:#fff;}.b{fill:#b90b13;}</style></defs><g transform="translate(-7927.216 -9973.335)"><path class="a" d="M126.595,14.243a9.59,9.59,0,0,0-3.55-7.475C120.8,5.087,118.372,4.9,114.822,4.9H106.6V35.92h3.55V23.4h4.672c3.55,0,5.98-.374,8.222-1.869a9.209,9.209,0,0,0,3.55-7.288m-5.419,4.485-.187.187c-1.308.934-2.8,1.121-5.793,1.121h-4.858V8.45H115.2c3.177,0,4.672.374,5.98,1.308,1.121.747,1.869,2.616,1.869,4.485,0,1.682-.747,3.737-1.869,4.485" transform="translate(92.598 4.256)"/><rect class="a" width="3.55" height="31.02" transform="translate(192.657 9.156)"/><path class="a" d="M99.235,35.92h3.55V8.45h8.222V4.9H91.2V8.45h8.035Z" transform="translate(79.221 4.256)"/><path class="a" d="M134.857,35.359s3.177-7.288,4.111-9.343h14.389c.747,1.682,2.99,6.54,4.111,9.343l.187.561h3.737L147.564,4.9h-2.99l-.187.561s-10.278,23.171-12.146,27.1H122.15V4.9H118.6V35.92h15.883Zm11.4-25.414c1.495,3.364,4.3,9.9,5.606,12.707H140.65c1.121-2.8,4.111-9.343,5.606-12.707" transform="translate(103.021 4.256)"/><path class="a" d="M101.757,32.556H89.05V4.9H85.5V35.92h16.257Z" transform="translate(74.269 4.256)"/><path class="a" d="M34.944,6.769C32.7,5.087,30.272,4.9,26.722,4.9H18.5V35.92h3.55V23.4h4.672c3.55,0,5.98-.374,8.222-1.869a9.59,9.59,0,0,0,3.55-7.475,9.209,9.209,0,0,0-3.55-7.288M32.889,18.728c-1.308.934-2.8,1.308-5.98,1.308H22.05V8.45h4.858c2.99,0,4.672.374,5.98,1.308,1.121.747,1.869,2.616,1.869,4.485a5.08,5.08,0,0,1-1.869,4.485" transform="translate(16.07 4.256)"/><path class="a" d="M51.329,24.895V4.9h-3.55V24.708c0,2.8,0,4.3-1.682,6.167a7.16,7.16,0,0,1-5.232,2.242,6.851,6.851,0,0,1-5.232-2.242c-1.682-2.056-1.682-3.364-1.682-6.167V4.9H30.4V24.895c0,2.056-.187,6.914,4.111,9.9a10.617,10.617,0,0,0,6.167,2.056,11.426,11.426,0,0,0,6.167-1.869c4.485-2.99,4.485-7.848,4.485-10.091" transform="translate(26.406 4.256)"/><path class="a" d="M16.07,4.7A16.191,16.191,0,0,0,0,20.77a16.191,16.191,0,0,0,16.07,16.07,16.191,16.191,0,0,0,16.07-16.07A16.191,16.191,0,0,0,16.07,4.7m0,28.59A12.52,12.52,0,1,1,28.59,20.77,12.521,12.521,0,0,1,16.07,33.29" transform="translate(0 4.083)"/><path class="a" d="M109.337,36.754a11.426,11.426,0,0,0,6.167-1.869c4.3-2.8,4.111-7.475,4.111-9.9V4.987h-3.55V24.795c0,2.8,0,4.111-1.682,6.167A7.16,7.16,0,0,1,109.15,33.2a6.851,6.851,0,0,1-5.232-2.242c-1.682-2.056-1.682-3.364-1.682-6.167V4.987H99.059l-18.5,25.04V4.987H77.2L62.621,24.795v-.187c-1.308-3.55-4.3-5.045-9.156-6.353-4.111-1.121-5.98-2.616-5.98-5.045a4.981,4.981,0,0,1,1.308-3.364,6.306,6.306,0,0,1,4.3-1.495c4.485,0,5.419,3.177,5.606,4.672l.187.747h3.364V12.648A8.561,8.561,0,0,0,53.278,4.8a9.429,9.429,0,0,0-7.1,2.8A8.036,8.036,0,0,0,43.934,13.4c0,5.98,5.793,7.475,8.6,8.222,2.99.747,5.793,1.682,6.727,4.111a5.777,5.777,0,0,1,.374,1.495,4.644,4.644,0,0,1-.187,1.495A7.326,7.326,0,0,1,52.9,33.2a6.537,6.537,0,0,1-4.111-1.495,5.78,5.78,0,0,1-2.242-4.3v-.934H43v.934A9.6,9.6,0,0,0,46.924,34.7a10.064,10.064,0,0,0,5.98,2.056,10.185,10.185,0,0,0,8.035-3.924h0c.187-.187.561-.747,1.121-1.495L77.009,11.153v25.04h3.364l18.5-25.04V25.168c0,2.056-.187,6.914,4.111,9.717a12.6,12.6,0,0,0,6.353,1.869" transform="translate(37.352 4.17)"/><rect class="a" width="1.308" height="1.869" transform="translate(68.019 53.07)"/><rect class="a" width="1.308" height="9.717" transform="translate(68.019 56.807)"/><path class="a" d="M47.37,31.964v2.056a4.349,4.349,0,0,0-3.924-2.242A4.958,4.958,0,0,0,38.4,37.009a4.953,4.953,0,0,0,5.045,5.232A4.427,4.427,0,0,0,47.556,40v2.056h1.308V28.6H47.556v3.364Zm-1.121,7.661a3.8,3.8,0,0,1-2.8,1.121,3.721,3.721,0,0,1-3.924-3.924h0a3.925,3.925,0,1,1,6.727,2.8" transform="translate(33.356 24.843)"/><path class="a" d="M50.232,30.3a5.232,5.232,0,0,0,0,10.464,4.866,4.866,0,0,0,2.8-.747,6.748,6.748,0,0,0,2.056-2.429H53.783a3.53,3.53,0,0,1-3.364,2.056,3.572,3.572,0,0,1-3.737-3.55h8.97a4.954,4.954,0,0,0-1.495-4.111A5.241,5.241,0,0,0,50.232,30.3m-3.924,4.485a3.758,3.758,0,0,1,7.475,0Z" transform="translate(39.089 26.32)"/><rect class="a" width="1.308" height="9.717" transform="translate(96.422 56.807)"/><rect class="a" width="1.308" height="1.869" transform="translate(96.422 53.07)"/><path class="a" d="M62.656,32.629A4.449,4.449,0,0,0,58.545,30.2,4.958,4.958,0,0,0,53.5,35.432a5.058,5.058,0,0,0,5.045,5.232,4.689,4.689,0,0,0,4.111-2.242v2.056h1.308V30.761H62.656Zm-.187,4.485a3.92,3.92,0,0,1-3.55,2.429,3.82,3.82,0,0,1-3.924-3.924h0a3.832,3.832,0,0,1,3.924-3.924,3.654,3.654,0,0,1,3.55,2.429,3.52,3.52,0,0,1,.374,1.495c-.187.374-.187.934-.374,1.495" transform="translate(46.473 26.233)"/><path class="a" d="M63.764,34.6c-1.121-.374-1.869-.747-1.869-1.682s.561-1.495,1.682-1.495A1.568,1.568,0,0,1,65.258,33.1h1.308a2.875,2.875,0,0,0-2.99-2.8,2.8,2.8,0,0,0-2.99,2.8c0,1.495,1.121,2.056,2.616,2.616,1.682.561,2.429.934,2.429,2.056a1.873,1.873,0,0,1-1.869,1.869,1.908,1.908,0,0,1-2.056-1.869H60.4c0,2.056,1.682,2.99,3.364,2.99a2.944,2.944,0,0,0,3.177-3.177c-.187-2.242-1.682-2.616-3.177-2.99" transform="translate(52.466 26.32)"/><path class="a" d="M76.856,32.542A4.427,4.427,0,0,0,72.745,30.3,5.066,5.066,0,0,0,67.7,35.532a4.91,4.91,0,0,0,5.045,5.045,4.7,4.7,0,0,0,4.111-2.242v5.793h1.308V30.674H76.856Zm-1.121,5.606a3.964,3.964,0,0,1-6.727-2.8h0a3.925,3.925,0,1,1,7.848,0,3.525,3.525,0,0,1-1.121,2.8" transform="translate(58.807 26.32)"/><path class="a" d="M82.461,35.919a3.09,3.09,0,0,1-3.177,3.364c-2.242,0-3.177-1.495-3.177-3.55V30.5H74.8v5.606c0,2.429,1.121,4.485,4.111,4.485a3.621,3.621,0,0,0,3.55-2.056v1.682H83.77V30.5H82.461v5.419Z" transform="translate(64.975 26.494)"/><path class="a" d="M85.932,30.3a5.232,5.232,0,1,0,0,10.464,4.866,4.866,0,0,0,2.8-.747,6.748,6.748,0,0,0,2.056-2.429H89.3a3.53,3.53,0,0,1-3.364,2.056,3.841,3.841,0,0,1-3.924-3.55h8.97a4.954,4.954,0,0,0-1.495-4.111,4.079,4.079,0,0,0-3.55-1.682m-3.737,4.485a3.758,3.758,0,0,1,7.475,0Z" transform="translate(70.1 26.32)"/><path class="a" d="M91.095,31.564v.747H89.6v1.121h1.495v8.783H92.4V33.432h2.056V32.311H92.4v-.747c0-2.056,1.495-2.056,2.056-2.242V28.2c-.934.187-3.364.374-3.364,3.364" transform="translate(77.831 24.496)"/><path class="a" d="M100.761,35.919a3.09,3.09,0,0,1-3.177,3.364c-2.242,0-3.177-1.495-3.177-3.55V30.5H93.1v5.606c0,2.429,1.121,4.485,4.111,4.485,1.682,0,3.177-.747,3.55-2.056v1.682h1.308V30.5h-1.308v5.419Z" transform="translate(80.871 26.494)"/><path class="a" d="M104.445,30.3a3.9,3.9,0,0,0-3.737,2.056V30.674H99.4v9.717h1.308V34.785a3.09,3.09,0,0,1,3.177-3.364c2.242,0,3.177,1.495,3.177,3.55V40.2h1.308V34.6c.187-2.242-.934-4.3-3.924-4.3" transform="translate(86.343 26.32)"/><path class="a" d="M110.719,31.508a3.738,3.738,0,0,1,3.55,2.429h1.308A5.25,5.25,0,0,0,105.3,35.432a5.1,5.1,0,0,0,5.232,5.232,4.883,4.883,0,0,0,4.858-3.55H113.9a3.655,3.655,0,0,1-3.55,2.242,3.947,3.947,0,0,1-3.924-3.924,3.525,3.525,0,0,1,1.121-2.8,5.956,5.956,0,0,1,3.177-1.121" transform="translate(91.468 26.233)"/><rect class="a" width="1.308" height="9.717" transform="translate(209.288 56.807)"/><rect class="a" width="1.308" height="1.869" transform="translate(209.288 53.07)"/><path class="a" d="M119.132,30.3a5.107,5.107,0,0,0-5.232,5.232h0a5.232,5.232,0,1,0,5.232-5.232m0,8.97a3.832,3.832,0,0,1-3.924-3.924h0a3.924,3.924,0,1,1,3.924,3.924" transform="translate(98.939 26.32)"/><path class="a" d="M125.645,30.3a3.9,3.9,0,0,0-3.737,2.056V30.674H120.6v9.717h1.308V34.785a3.09,3.09,0,0,1,3.177-3.364c2.242,0,3.177,1.495,3.177,3.55V40.2h1.308V34.6c.187-2.242-.934-4.3-3.924-4.3" transform="translate(104.759 26.32)"/><path class="a" d="M135.669,32.629a4.364,4.364,0,0,0-3.924-2.429,4.958,4.958,0,0,0-5.045,5.232,5.058,5.058,0,0,0,5.045,5.232,4.2,4.2,0,0,0,3.924-2.242v2.056h1.308V30.761h-1.308Zm-.187,4.485a3.92,3.92,0,0,1-3.55,2.429,3.82,3.82,0,0,1-3.924-3.924h0a3.832,3.832,0,0,1,3.924-3.924,3.654,3.654,0,0,1,3.55,2.429,3.52,3.52,0,0,1,.374,1.495,5.775,5.775,0,0,1-.374,1.495" transform="translate(110.058 26.233)"/><path class="a" d="M147.441,31.234a3.5,3.5,0,0,0-2.616-.934,3.136,3.136,0,0,0-2.616,1.121,3.909,3.909,0,0,0-.747,1.121,2.489,2.489,0,0,0-.561-.934,3.625,3.625,0,0,0-5.793.747V30.861H133.8v9.717h1.308V35.158a3.171,3.171,0,0,1,.747-2.429,2.027,2.027,0,0,1,2.056-.934,2.664,2.664,0,0,1,2.242,1.121,3.985,3.985,0,0,1,.561,2.242v5.419h1.308V35.158a3.39,3.39,0,0,1,.561-2.429,2.333,2.333,0,0,1,2.242-.934,2.491,2.491,0,0,1,1.869.747,3.653,3.653,0,0,1,.747,2.616v5.419h1.308V35.158c-.187-2.056-.374-3.177-1.308-3.924" transform="translate(116.225 26.32)"/><path class="b" d="M80.49,10.464h.561V0H77.5V10.464h2.99Z" transform="translate(67.32)"/></g></svg>