<svg xmlns="http://www.w3.org/2000/svg" viewBox="4014 5 348.355 93.218">
  <defs>
    <style>
      .cls-1 {
        fill: #b90b13;
      }

      .cls-2 {
        fill: #fff;
      }
    </style>
  </defs>
  <g id="Group_329" data-name="Group 329" transform="translate(3969 -24)">
    <rect id="Rectangle_749" data-name="Rectangle 749" class="cls-1" width="2.063" height="13.352" transform="translate(239.812 29)"/>
    <path id="Path_1700" data-name="Path 1700" class="cls-2" d="M236.613,13.528c-2.913-2.063-5.826-2.428-10.56-2.428H216.1V51.64h2.185V34.283h7.768c4.734,0,7.647-.364,10.56-2.428a11.642,11.642,0,0,0,4.37-9.225,11.224,11.224,0,0,0-4.37-9.1M235.52,30.035c-2.185,1.578-4.612,2.063-9.1,2.063h-8.132V13.285h8.132c4.612,0,6.919.486,9.1,2.063,1.942,1.335,3.277,4.37,3.277,7.4,0,2.913-1.335,5.948-3.277,7.283" transform="translate(91.198 31.373)"/>
    <rect id="Rectangle_750" data-name="Rectangle 750" class="cls-2" width="2.185" height="40.54" transform="translate(300.623 42.473)"/>
    <path id="Path_1701" data-name="Path 1701" class="cls-2" d="M186.4,13.285h11.41V51.64h2.185V13.285H211.4V11.1h-25Z" transform="translate(84.849 31.373)"/>
    <path id="Path_1702" data-name="Path 1702" class="cls-2" d="M278.413,11.1h-2.549s-16.993,37.991-17.114,38.356H242.485V11.1H240.3V51.64h19.785s6.069-13.473,6.19-13.716H288c.121.243,6.19,13.716,6.19,13.716H296.5ZM267.367,35.74c.364-.728,9.346-21.241,9.832-22.212.486.971,9.467,21.484,9.832,22.212Z" transform="translate(96.372 31.373)"/>
    <path id="Path_1703" data-name="Path 1703" class="cls-2" d="M177.985,11.1H175.8V51.64h19.906V49.456H177.985Z" transform="translate(82.583 31.373)"/>
    <path id="Path_1704" data-name="Path 1704" class="cls-2" d="M58.813,13.528C55.9,11.464,52.987,11.1,48.253,11.1H38.3V51.64h2.063V34.283h7.768c4.734,0,7.647-.364,10.56-2.428a11.642,11.642,0,0,0,4.37-9.225,11.482,11.482,0,0,0-4.248-9.1M57.6,30.035h0c-2.185,1.578-4.491,2.063-9.1,2.063H40.363V13.285H48.5c4.612,0,6.919.486,9.1,2.063,1.942,1.335,3.277,4.37,3.277,7.4,0,2.913-1.335,5.948-3.277,7.283" transform="translate(53.188 31.373)"/>
    <path id="Path_1705" data-name="Path 1705" class="cls-2" d="M88.5,11.1H86.312V37.318c0,3.884,0,6.312-2.549,9.468-1.7,2.185-4.977,3.52-8.254,3.52-3.4,0-6.676-1.335-8.375-3.52-2.549-3.156-2.549-5.583-2.549-9.468V11.1H62.4V37.56c0,2.913-.121,8.982,5.1,12.5a14.232,14.232,0,0,0,15.9,0c5.219-3.52,5.219-9.346,5.1-12.5Z" transform="translate(58.34 31.373)"/>
    <path id="Path_1706" data-name="Path 1706" class="cls-2" d="M21,10.7a21,21,0,1,0,21,21,21.084,21.084,0,0,0-21-21m0,39.691A18.692,18.692,0,1,1,39.691,31.7,18.8,18.8,0,0,1,21,50.391" transform="translate(45 31.287)"/>
    <path id="Path_1707" data-name="Path 1707" class="cls-2" d="M190.336,11.164h-2.185V37.382c0,3.884,0,6.312-2.549,9.468-1.7,2.185-4.977,3.52-8.254,3.52-3.4,0-6.676-1.335-8.375-3.52-2.549-3.156-2.549-5.583-2.549-9.468V11.164h-2.792L135.958,48.67V11.164h-2.792L111.44,40.659v-.121a13.2,13.2,0,0,0-.486-3.156c-1.578-4.37-5.462-6.19-11.774-7.89-4.005-1.092-9.225-3.034-9.225-8.254,0-4.127,2.913-8.254,9.346-8.254,6.19,0,8.5,4.248,8.982,7.525h2.185c-.364-4.491-3.763-9.71-11.045-9.71a12.178,12.178,0,0,0-8.861,3.4,9.784,9.784,0,0,0-2.792,7.161c0,6.554,5.826,8.739,10.8,10.2,4.37,1.214,8.739,2.428,10.317,6.554a7.34,7.34,0,0,1,.486,2.67,8.41,8.41,0,0,1-.364,2.428,10.308,10.308,0,0,1-9.832,7.283,9.6,9.6,0,0,1-6.433-2.306,9.971,9.971,0,0,1-3.763-7.04H86.8a12.361,12.361,0,0,0,4.855,8.982,12.181,12.181,0,0,0,7.525,2.549,12.36,12.36,0,0,0,9.953-4.977s.607-.85,1.578-2.185L133.895,14.2V51.7h2.792l27.674-37.627V37.625c0,2.913-.121,8.982,5.1,12.5a14.067,14.067,0,0,0,7.89,2.428,13.5,13.5,0,0,0,7.89-2.428c5.219-3.52,5.219-9.346,5.1-12.5V11.164Z" transform="translate(63.556 31.309)"/>
    <rect id="Rectangle_751" data-name="Rectangle 751" class="cls-2" width="0.607" height="1.942" transform="translate(170.869 101.948)"/>
    <rect id="Rectangle_752" data-name="Rectangle 752" class="cls-2" width="0.607" height="11.41" transform="translate(170.869 106.439)"/>
    <path id="Path_1708" data-name="Path 1708" class="cls-2" d="M167.11,66.556a6.08,6.08,0,0,0-11.41,2.792,6.08,6.08,0,0,0,11.41,2.792v7.525h.607v-15.9h-.607Zm-1.457,6.8a5.4,5.4,0,0,1-3.884,1.578,5.264,5.264,0,0,1-5.462-5.341h0a5.347,5.347,0,0,1,5.462-5.462,5.615,5.615,0,0,1,3.884,1.578,4.868,4.868,0,0,1,1.457,3.884,4.768,4.768,0,0,1-1.457,3.763" transform="translate(78.286 42.554)"/>
    <path id="Path_1709" data-name="Path 1709" class="cls-2" d="M196.621,63.363v1.092H194.8v.607h1.821v10.8h.607v-10.8h2.913v-.607h-2.913v-.971c0-3.156,2.063-3.156,2.913-3.277V59.6c-.607.121-3.52.121-3.52,3.763" transform="translate(86.645 41.741)"/>
    <path id="Path_1710" data-name="Path 1710" class="cls-2" d="M217.641,63.5c-2.063,0-4.005.728-4.734,2.792V63.864H212.3v11.41h.607V68.719c0-3.034,1.942-4.491,4.612-4.491,3.156,0,4.612,1.942,4.612,4.977V75.4h.607V68.962c0-3.4-1.7-5.462-5.1-5.462" transform="translate(90.386 42.575)"/>
    <path id="Path_1711" data-name="Path 1711" class="cls-2" d="M229.169,64.007a5.137,5.137,0,0,1,4.977,3.4h.607A6,6,0,0,0,223.1,69.469a5.826,5.826,0,0,0,6.069,5.948,5.922,5.922,0,0,0,5.583-3.884h-.607a5.2,5.2,0,0,1-4.977,3.277,5.265,5.265,0,0,1-5.341-5.462,5.187,5.187,0,0,1,5.341-5.341" transform="translate(92.695 42.554)"/>
    <rect id="Rectangle_753" data-name="Rectangle 753" class="cls-2" width="0.607" height="1.942" transform="translate(330.239 101.827)"/>
    <rect id="Rectangle_754" data-name="Rectangle 754" class="cls-2" width="0.607" height="11.41" transform="translate(330.239 106.318)"/>
    <path id="Path_1712" data-name="Path 1712" class="cls-2" d="M254.941,63.5c-2.063,0-4.005.728-4.734,2.792V63.864H249.6v11.41h.607V68.719c0-3.034,1.942-4.491,4.612-4.491,3.156,0,4.612,1.942,4.612,4.977V75.4h.607V68.962c0-3.4-1.7-5.462-5.1-5.462" transform="translate(98.36 42.575)"/>
    <path id="Path_1713" data-name="Path 1713" class="cls-2" d="M271.588,66.777a5.66,5.66,0,0,0-5.341-3.277,5.8,5.8,0,0,0-5.948,5.948,5.876,5.876,0,0,0,5.948,5.948,5.787,5.787,0,0,0,5.341-3.277v2.913h.607V63.621h-.607Zm-.243,4.491a5.144,5.144,0,0,1-4.977,3.52,5.252,5.252,0,0,1-5.462-5.341h0a5.364,5.364,0,0,1,5.462-5.462,5.217,5.217,0,0,1,4.977,3.277,5.5,5.5,0,0,1,.364,1.942,5.668,5.668,0,0,1-.364,2.063" transform="translate(100.648 42.575)"/>
    <path id="Path_1714" data-name="Path 1714" class="cls-2" d="M288.7,64.592a4.149,4.149,0,0,0-3.156-1.092,3.99,3.99,0,0,0-3.277,1.457,3.428,3.428,0,0,0-.85,1.335s-.486-.971-.728-1.335a4.074,4.074,0,0,0-3.4-1.457,4.317,4.317,0,0,0-3.884,2.428V63.743H272.8v11.41h.607V68.719a4.91,4.91,0,0,1,1.092-3.4,3.356,3.356,0,0,1,2.792-1.214,3.768,3.768,0,0,1,3.034,1.335,4.983,4.983,0,0,1,.85,3.4v6.433h.607V68.841c0-1.821.121-2.428.85-3.4a3.658,3.658,0,0,1,2.913-1.335,3.577,3.577,0,0,1,2.67.971,5.21,5.21,0,0,1,1.214,3.763v6.433h.607V68.841a5.778,5.778,0,0,0-1.335-4.248" transform="translate(103.32 42.575)"/>
    <path id="Path_1715" data-name="Path 1715" class="cls-2" d="M210.532,69.89c0,3.034-1.457,4.977-4.612,4.977s-4.612-1.942-4.612-4.977V63.7H200.7v6.19c0,3.4,1.7,5.462,5.1,5.583h.243c3.4-.121,5.1-2.185,5.1-5.583V63.7h-.607Z" transform="translate(87.906 42.618)"/>
    <path id="Path_1716" data-name="Path 1716" class="cls-2" d="M189.6,64.978a6.224,6.224,0,0,0-4.127-1.578,5.936,5.936,0,0,0-6.069,6.069,5.769,5.769,0,0,0,5.948,5.948,6.012,6.012,0,0,0,3.277-.85,5.569,5.569,0,0,0,2.306-2.67H190.2a5.2,5.2,0,0,1-4.855,3.034,5.354,5.354,0,0,1-5.341-5.341h11.41a5.87,5.87,0,0,0-1.821-4.612m-4.127-.971a5.316,5.316,0,0,1,5.341,4.977H180.128a5.236,5.236,0,0,1,5.341-4.977" transform="translate(83.353 42.554)"/>
    <path id="Path_1717" data-name="Path 1717" class="cls-2" d="M178.732,69.89c0,3.034-1.457,4.977-4.612,4.977-3.034,0-4.612-1.942-4.612-4.977V63.7H168.9v6.19c0,3.4,1.7,5.462,5.1,5.583h.243c3.4-.121,5.1-2.185,5.1-5.583V63.7h-.607Z" transform="translate(81.108 42.618)"/>
    <rect id="Rectangle_755" data-name="Rectangle 755" class="cls-2" width="0.607" height="1.942" transform="translate(202.67 101.948)"/>
    <path id="Path_1718" data-name="Path 1718" class="cls-2" d="M117.688,64.591v3.034a5.66,5.66,0,0,0-5.341-3.277A5.8,5.8,0,0,0,106.4,70.3a5.876,5.876,0,0,0,5.948,5.948,5.663,5.663,0,0,0,5.341-3.277v2.913h.607V60.1h-.607Zm-1.457,9.589a5.4,5.4,0,0,1-3.884,1.578,5.252,5.252,0,0,1-5.462-5.341h0a5.462,5.462,0,1,1,10.924,0,6.487,6.487,0,0,1-1.578,3.763" transform="translate(67.746 41.848)"/>
    <path id="Path_1719" data-name="Path 1719" class="cls-2" d="M128.3,65.078a6.223,6.223,0,0,0-4.127-1.578,5.936,5.936,0,0,0-6.069,6.069,5.769,5.769,0,0,0,5.948,5.948,6.012,6.012,0,0,0,3.277-.85A5.569,5.569,0,0,0,129.631,72H128.9a5.2,5.2,0,0,1-4.855,3.034,5.438,5.438,0,0,1-5.462-5.341H130a5.536,5.536,0,0,0-1.7-4.612m-4.127-.971a5.316,5.316,0,0,1,5.341,4.977H118.828a5.236,5.236,0,0,1,5.341-4.977" transform="translate(70.248 42.575)"/>
    <rect id="Rectangle_756" data-name="Rectangle 756" class="cls-2" width="0.607" height="11.41" transform="translate(202.67 106.439)"/>
    <path id="Path_1720" data-name="Path 1720" class="cls-2" d="M143.888,66.877a5.66,5.66,0,0,0-5.341-3.277,5.8,5.8,0,0,0-5.948,5.948,5.876,5.876,0,0,0,5.948,5.948,5.787,5.787,0,0,0,5.341-3.277v2.913h.607V63.721h-.607Zm-.243,4.491a5.144,5.144,0,0,1-4.977,3.52,5.252,5.252,0,0,1-5.462-5.341h0a5.338,5.338,0,0,1,5.341-5.462,5.217,5.217,0,0,1,4.977,3.277,5.5,5.5,0,0,1,.364,1.942,5.36,5.36,0,0,1-.243,2.063" transform="translate(73.348 42.597)"/>
    <path id="Path_1721" data-name="Path 1721" class="cls-2" d="M148.142,68.819c-1.578-.486-2.428-.971-2.549-2.306a2.392,2.392,0,0,1,2.549-2.428,2.286,2.286,0,0,1,2.428,2.428h.607a2.771,2.771,0,0,0-3.034-2.913,2.936,2.936,0,0,0-3.156,2.913c.121,1.942,1.335,2.428,3.034,2.913,1.821.364,2.67,1.214,2.792,2.67a2.853,2.853,0,1,1-5.7-.121H144.5a3.282,3.282,0,0,0,3.52,3.4,3.217,3.217,0,0,0,3.277-3.4c0-2.306-1.7-2.67-3.156-3.156" transform="translate(75.89 42.597)"/>
    <path id="Path_1722" data-name="Path 1722" class="cls-2" d="M243.569,63.5a5.909,5.909,0,0,0-6.069,5.948h0a6.009,6.009,0,0,0,12.016,0,5.737,5.737,0,0,0-5.948-5.948m0,11.41a5.265,5.265,0,0,1-5.341-5.462h0a5.265,5.265,0,0,1,5.341-5.462,5.364,5.364,0,0,1,5.462,5.462,5.439,5.439,0,0,1-5.462,5.462" transform="translate(95.773 42.575)"/>
  </g>
</svg>
