<svg xmlns="http://www.w3.org/2000/svg" viewBox="6898.793 7317 29.719 29.719">
  <defs>
    <style>
      .cls-1 {
        fill: #fff;
      }
    </style>
  </defs>
  <path id="Path_1671" data-name="Path 1671" class="cls-1" d="M111.927,7.5h22.065a3.854,3.854,0,0,1,3.827,3.827V33.392a3.854,3.854,0,0,1-3.827,3.827H111.927a3.854,3.854,0,0,1-3.827-3.827V11.267A3.8,3.8,0,0,1,111.927,7.5Zm17.819,3.289a1.327,1.327,0,0,0-1.316,1.316v3.169a1.327,1.327,0,0,0,1.316,1.316h3.349a1.327,1.327,0,0,0,1.316-1.316V12.1a1.327,1.327,0,0,0-1.316-1.316Zm4.664,9.268h-2.631a9.21,9.21,0,0,1,.359,2.571,9.214,9.214,0,0,1-18.417,0,9.21,9.21,0,0,1,.359-2.571h-2.751V32.614a1.2,1.2,0,0,0,1.2,1.2h20.69a1.2,1.2,0,0,0,1.2-1.2Zm-11.421-3.588a5.8,5.8,0,1,0,5.98,5.8A5.884,5.884,0,0,0,122.989,16.469Z" transform="translate(6790.693 7309.5)"/>
</svg>
