<svg xmlns="http://www.w3.org/2000/svg" viewBox="7068.729 7199.84 135.645 39.46">
  <defs>
    <style>
      .cls-1 {
        fill: #fff;
      }
    </style>
  </defs>
  <g id="Group_373" data-name="Group 373" transform="translate(5958 -31)">
    <path id="Path_1638" data-name="Path 1638" class="cls-1" d="M892.2,184.682a1.563,1.563,0,0,1,1.258-.554c.5-.05.956-.151,1.46-.2.856-.151,1.812-.252,2.668-.352.352-.05,1.007-.151,1.963-.252,3.121-.4,8.858-1.107,11.425-1.208h1.057a1.889,1.889,0,0,0,.5.05,1.246,1.246,0,0,0,1.057-.554l.151-.2c.252-.3.6-.654.4-1.057-.252-.453-.805-.453-1.309-.453h-.755c-2.668.1-14.9,1.963-17.465,2.416-.4.1-1.46.252-2.567.5-1.309.252-2.617.5-2.97.554-1.611.3-7.4,1.409-9.06,1.46h-1.409a1.885,1.885,0,0,0-1.359.554l-.151.1c-.2.2-.5.453-.352.805s.554.3.7.3h.3c2.215-.05,8.506-1.258,10.771-1.661a62.567,62.567,0,0,1-3.423,5.285c-2.668,3.674-8.1,9.714-9.815,13.338-.453,1.007-1.208,2.819-.805,3.473a.782.782,0,0,0,.4.3h.151c.805-.05,1.56-1.359,1.762-2.064.4-1.409,3.07-5.285,3.775-6.392,2.265-3.473,5.839-6.946,8.355-10.268a34.7,34.7,0,0,0,3.272-3.926" transform="translate(239.715 7050.94)"/>
    <path id="Path_1639" data-name="Path 1639" class="cls-1" d="M946.753,196.9l-.3.05a3.854,3.854,0,0,0-1.812,1.057.747.747,0,0,0-.1,1.007.851.851,0,0,0,.6.2,3.936,3.936,0,0,0,1.611-.453c1.007-.453.956-1.007.906-1.208a.844.844,0,0,0-.906-.654" transform="translate(204.946 7042.496)"/>
    <path id="Path_1640" data-name="Path 1640" class="cls-1" d="M962.99,194.966c-3.725,0-6.442.252-9.11,1.963.05-.1.4-.6.2-.956-.151-.252-.3-.352-.805-.453l-.352-.05-.352.1a.571.571,0,0,0-.151.4,2.193,2.193,0,0,1-1.862,2.366c-1.661.6-4.731,1.661-6.493,1.661a1.552,1.552,0,0,1-.5-.05h0l.252-.5c.4-.755.4-1.359-.05-1.611a2.429,2.429,0,0,0-2.466.554c-1.208,1.158-.453,2.869-.5,2.919a17.079,17.079,0,0,1-1.963,1.711,2.953,2.953,0,0,1-1.057.5l-.2-.05c-.252-.2.2-1.51.4-1.862a12.432,12.432,0,0,1,2.97-3.473,3.656,3.656,0,0,1,2.114-.755h.1c.1,0,.352,0,.453-.2s-.05-.352-.151-.453l-.05-.05a2.153,2.153,0,0,0-1.409-.453,2.328,2.328,0,0,0-1.56.5,14.837,14.837,0,0,0-2.768,2.869,2.05,2.05,0,0,1-.7.6c-.805.4-1.711.906-2.617,1.359l-.1.05c-.755.352-1.409.7-2.013.956l-.4.2a13.461,13.461,0,0,1-3.725,1.208q-.83.151-1.057-.151a1.03,1.03,0,0,1,.05-.856,11.59,11.59,0,0,1,1.56-2.919,72.159,72.159,0,0,1,6.04-7.55l1.963-2.265,1.107-1.309c.856-1.007,1.661-1.963,2.517-2.97a.629.629,0,0,0,.2-.654c-.1-.2-.4-.252-.654-.3h-.453a1.991,1.991,0,0,0-2.013,1.007,4.712,4.712,0,0,1-.453.6l-.3.352c-1.158,1.51-2.366,3.02-3.573,4.48-1.812,2.215-3.725,4.53-5.335,6.946-.1.2-.3.252-.5.4h-.05a71.839,71.839,0,0,1-7.449,3.674l-.4.151a8.613,8.613,0,0,1-2.97.755c-.453,0-.755-.05-.856-.2a1.106,1.106,0,0,1,0-.906,5.452,5.452,0,0,1,1.057-1.711,18.8,18.8,0,0,1,3.573-3.624l.05-.05c.151-.151.453-.3.3-.654a.4.4,0,0,0-.4-.252h-.252a3.818,3.818,0,0,0-2.718,1.158c-2.567,2.466-8.909,5.134-9.311,5.234-.906.252-1.51.4-1.762.151-.4-.4-.2-1.007.856-2.366a10.635,10.635,0,0,0,1.409-1.862,2.024,2.024,0,0,0-.151-1.762l-.252-.352-.1-.1-.151-.151-.151-.1-.151-.1h0a1.835,1.835,0,0,0-1.359-.2,3.971,3.971,0,0,0-1.711.956,20,20,0,0,0-4.278,4.631,9.8,9.8,0,0,0-1.359,2.567,1.113,1.113,0,0,0,.5,1.46,1.6,1.6,0,0,0,1.812-.1,23.382,23.382,0,0,0,3.02-2.215c.252-.252.352-.3.6-.554a2.043,2.043,0,0,0,.7,1.56c.956.7,2.315.151,3.272-.252.6-.252,3.322-1.661,4.379-2.164.554-.3,1.107-.554,1.611-.805l-.2.453-.151.352c-.3.906-.5,1.812.4,2.567a3.01,3.01,0,0,0,3.07.453,51.928,51.928,0,0,0,6.04-2.517c.654-.3,1.359-.654,2.064-1.007.2-.1.453-.2.7-.352a6.849,6.849,0,0,0-.906,3.272c.05,1.158.6,1.762,1.661,1.762a3.5,3.5,0,0,0,1.158-.2l.151-.05.252-.05a46.766,46.766,0,0,0,6.795-2.919l.1-.05h0l.151-.1.2-.151.252-.151a13.9,13.9,0,0,0-.4,1.762c0,1.057.755,1.51,2.013,1.208a8.977,8.977,0,0,0,1.157-.453A14.148,14.148,0,0,0,942,201.71c.5-.5,1.862-.755,3.473-1.007a24.047,24.047,0,0,0,4.178-1.007l.2-.05-.1.1v.05c-.453.554-1.359,2.013-1.913,2.768-.2.3-.4.554-.554.805a1.927,1.927,0,0,0-.453,1.359v.151c0,.151-.05.352.252.453l.2.05a.447.447,0,0,0,.453-.352l.05-.1c5.838-8.053,9.815-8.858,14.747-9.211a.875.875,0,0,0,.856-.805l.05-.2Zm-62.26,8.607-.151-.05c-.1-.05-.1-.2.1-.5l.1-.151a16.876,16.876,0,0,1,4.58-5.033,3.505,3.505,0,0,1,1.158-.554h.05c.1.1.352.5-.3,1.309l-.252.3-.1.151c-1.309,1.862-4.379,4.48-5.184,4.53" transform="translate(227.716 7048.407)"/>
    <path id="Path_1641" data-name="Path 1641" class="cls-1" d="M1035.379,209.531l-3.12-4.731H1031v9.16h1.309v-6.795l2.97,4.379h.2l2.969-4.379v6.795h1.309V204.8H1038.5Z" transform="translate(161.921 7038.572)"/>
    <path id="Path_1642" data-name="Path 1642" class="cls-1" d="M1058.309,209.934h4.832v-1.158h-4.832v-2.768h5.386V204.8H1057v9.16h6.745v-1.208h-5.436Z" transform="translate(149.007 7038.572)"/>
    <rect id="Rectangle_738" data-name="Rectangle 738" class="cls-1" width="1.309" height="9.11" transform="translate(1228.707 7243.373)"/>
    <path id="Path_1643" data-name="Path 1643" class="cls-1" d="M1117.135,204.8l-.05-.1h-1.107l-4.178,9.211h1.359l1.057-2.315h4.63l1.057,2.315h1.409Zm-2.366,5.587,1.762-3.976,1.761,3.976Z" transform="translate(121.789 7038.622)"/>
    <path id="Path_1644" data-name="Path 1644" class="cls-1" d="M1081.321,204.8H1078.1v9.16h3.221a4.587,4.587,0,1,0,0-9.16m.1,7.952h-2.013v-6.694h2.013a3.348,3.348,0,1,1,0,6.694" transform="translate(138.527 7038.572)"/>
    <path id="Path_1645" data-name="Path 1645" class="cls-1" d="M870.67,252.141a3.124,3.124,0,0,1,0-6.241,3.172,3.172,0,0,1,2.315.956l-.453.5a2.465,2.465,0,0,0-1.862-.805,2.307,2.307,0,0,0-2.265,2.466,2.384,2.384,0,0,0,2.265,2.517,2.52,2.52,0,0,0,1.913-.856l.453.453a3.134,3.134,0,0,1-2.365,1.007" transform="translate(243.029 7018.159)"/>
    <path id="Path_1646" data-name="Path 1646" class="cls-1" d="M883.22,252.141a3.122,3.122,0,0,1,0-6.241,2.978,2.978,0,0,1,2.97,3.121,2.947,2.947,0,0,1-2.97,3.121m0-5.587a2.346,2.346,0,0,0-2.315,2.466,2.39,2.39,0,0,0,2.315,2.517,2.5,2.5,0,0,0,0-4.983" transform="translate(236.82 7018.159)"/>
    <path id="Path_1647" data-name="Path 1647" class="cls-1" d="M899.829,246.1h.654v6.04h-.554l-3.775-4.933v4.933H895.5V246.1h.6l3.725,4.832Z" transform="translate(229.221 7018.06)"/>
    <path id="Path_1648" data-name="Path 1648" class="cls-1" d="M911.017,252.14h-.654v-5.385H908.4V246.1h4.58v.654h-1.963Z" transform="translate(222.814 7018.06)"/>
    <path id="Path_1649" data-name="Path 1649" class="cls-1" d="M924.778,246.754h-3.624v2.013h3.221v.654h-3.221v2.114h3.674v.6H920.5V246.1h4.278Z" transform="translate(216.804 7018.06)"/>
    <path id="Path_1650" data-name="Path 1650" class="cls-1" d="M936.529,246.1h.654v6.04h-.5l-3.825-4.933v4.933H932.2V246.1h.654l3.674,4.832Z" transform="translate(210.993 7018.06)"/>
    <path id="Path_1651" data-name="Path 1651" class="cls-1" d="M947.768,252.14h-.7v-5.385H945.1V246.1h4.63v.654h-1.963Z" transform="translate(204.586 7018.06)"/>
    <path id="Path_1652" data-name="Path 1652" class="cls-1" d="M966.581,252.091l-.906-.956a2.534,2.534,0,0,1-1.913.956,1.707,1.707,0,0,1-1.862-1.711,1.892,1.892,0,0,1,1.409-1.762,2.059,2.059,0,0,1-.6-1.359,1.456,1.456,0,0,1,1.56-1.46,1.365,1.365,0,0,1,1.409,1.359c0,.805-.554,1.258-1.409,1.56l1.359,1.409a8.583,8.583,0,0,0,.7-1.359l.554.252a10.766,10.766,0,0,1-.856,1.51l1.007,1.057Zm-2.869-3.02c-.805.3-1.107.805-1.107,1.309a1.152,1.152,0,0,0,1.208,1.158,1.9,1.9,0,0,0,1.46-.805Zm.554-2.668a.861.861,0,0,0-.906.856,1.537,1.537,0,0,0,.6,1.107c.755-.252,1.158-.6,1.158-1.158a.808.808,0,0,0-.856-.805" transform="translate(196.242 7018.208)"/>
    <path id="Path_1653" data-name="Path 1653" class="cls-1" d="M983.319,250.479h-.05l-2.114-3.221v4.882H980.5V246.1h.654l2.164,3.322,2.114-3.322h.7v6.04h-.7v-4.882Z" transform="translate(187.003 7018.06)"/>
    <path id="Path_1654" data-name="Path 1654" class="cls-1" d="M999.728,246.754h-3.574v2.013h3.221v.654h-3.221v2.114h3.624v.6H995.5V246.1h4.228Z" transform="translate(179.553 7018.06)"/>
    <path id="Path_1655" data-name="Path 1655" class="cls-1" d="M1009.264,252.14H1007.2V246.1h2.064a3.022,3.022,0,1,1,0,6.04m0-5.385H1007.9v4.782h1.359a2.285,2.285,0,0,0,2.416-2.366,2.326,2.326,0,0,0-2.416-2.416" transform="translate(173.742 7018.06)"/>
    <rect id="Rectangle_739" data-name="Rectangle 739" class="cls-1" width="0.654" height="6.04" transform="translate(1187.837 7264.16)"/>
    <path id="Path_1656" data-name="Path 1656" class="cls-1" d="M1031.04,252.09h-.7l-.7-1.611h-3.221l-.7,1.611h-.7l2.668-6.09h.6Zm-2.969-5.285-1.359,3.07h2.668Z" transform="translate(164.901 7018.109)"/>
    <path id="Path_1657" data-name="Path 1657" class="cls-1" d="M1047.464,250.026h-1.409v2.114h-.654V246.1h2.215c1.309,0,2.215.7,2.215,1.913a2.141,2.141,0,0,1-2.366,2.013m.1-3.272h-1.51v2.668h1.46a1.428,1.428,0,0,0,1.611-1.359c0-.856-.654-1.309-1.56-1.309" transform="translate(154.769 7018.06)"/>
    <path id="Path_1658" data-name="Path 1658" class="cls-1" d="M1061.126,252.14l-1.711-2.366h-1.661v2.366h-.654V246.1h2.517c1.309,0,2.114.7,2.114,1.812a1.721,1.721,0,0,1-1.61,1.762l1.812,2.466Zm-1.56-5.385h-1.812v2.466h1.812c.906,0,1.51-.453,1.51-1.258,0-.755-.554-1.208-1.51-1.208" transform="translate(148.958 7018.06)"/>
    <path id="Path_1659" data-name="Path 1659" class="cls-1" d="M1072.17,252.141a2.978,2.978,0,0,1-2.97-3.121,3.019,3.019,0,0,1,3.02-3.121,2.978,2.978,0,0,1,2.97,3.121,3.083,3.083,0,0,1-3.02,3.121m0-5.587a2.346,2.346,0,0,0-2.315,2.466,2.39,2.39,0,0,0,2.315,2.517,2.346,2.346,0,0,0,2.315-2.466,2.391,2.391,0,0,0-2.315-2.517" transform="translate(142.948 7018.159)"/>
    <path id="Path_1660" data-name="Path 1660" class="cls-1" d="M1084.512,252.29a1.976,1.976,0,0,1-1.812-1.057l.5-.4a1.538,1.538,0,0,0,1.359.856c.654,0,1.158-.5,1.158-1.46V246.2h.654v4.027a1.831,1.831,0,0,1-1.862,2.064" transform="translate(136.242 7018.01)"/>
    <path id="Path_1661" data-name="Path 1661" class="cls-1" d="M1097.878,246.754h-3.624v2.013h3.221v.654h-3.221v2.114h3.624v.6H1093.6V246.1h4.278Z" transform="translate(130.829 7018.06)"/>
    <path id="Path_1662" data-name="Path 1662" class="cls-1" d="M1107.77,252.141a3.124,3.124,0,0,1,0-6.241,3.173,3.173,0,0,1,2.315.956l-.453.5a2.466,2.466,0,0,0-1.862-.805,2.307,2.307,0,0,0-2.265,2.466,2.384,2.384,0,0,0,2.265,2.517,2.521,2.521,0,0,0,1.913-.856l.453.453a3.218,3.218,0,0,1-2.366,1.007" transform="translate(125.266 7018.159)"/>
    <path id="Path_1663" data-name="Path 1663" class="cls-1" d="M1119.968,252.14h-.7v-5.385H1117.3V246.1h4.63v.654h-1.963Z" transform="translate(119.057 7018.06)"/>
    <path id="Path_1664" data-name="Path 1664" class="cls-1" d="M1130.917,248.768c1.309.3,1.913.805,1.913,1.711a1.785,1.785,0,0,1-2.013,1.711,3.342,3.342,0,0,1-2.416-.956l.4-.5a2.821,2.821,0,0,0,2.013.856c.805,0,1.309-.4,1.309-1.007,0-.554-.3-.906-1.51-1.158-1.359-.3-1.963-.755-1.963-1.762a1.745,1.745,0,0,1,1.912-1.661,2.982,2.982,0,0,1,2.064.755l-.4.5a2.614,2.614,0,0,0-1.711-.654c-.755,0-1.258.453-1.258,1.007.1.554.4.856,1.661,1.158" transform="translate(113.544 7018.109)"/>
  </g>
</svg>
