<svg xmlns="http://www.w3.org/2000/svg" viewBox="6926.995 7206.534 113.951 32.212">
  <defs>
    <style>
      .cls-1 {
        fill: #fff;
      }
    </style>
  </defs>
  <g id="Group_374" data-name="Group 374" transform="translate(5958 -31)">
    <rect id="Rectangle_716" data-name="Rectangle 716" class="cls-1" width="2.064" height="2.064" transform="translate(1003.724 7245.939)"/>
    <rect id="Rectangle_717" data-name="Rectangle 717" class="cls-1" width="2.064" height="4.127" transform="translate(1005.787 7247.953)"/>
    <rect id="Rectangle_718" data-name="Rectangle 718" class="cls-1" width="2.064" height="2.013" transform="translate(999.596 7250.066)"/>
    <rect id="Rectangle_719" data-name="Rectangle 719" class="cls-1" width="4.127" height="2.013" transform="translate(1001.66 7237.685)"/>
    <rect id="Rectangle_720" data-name="Rectangle 720" class="cls-1" width="2.064" height="4.127" transform="translate(999.596 7239.749)"/>
    <rect id="Rectangle_721" data-name="Rectangle 721" class="cls-1" width="4.127" height="2.064" transform="translate(1001.66 7252.08)"/>
    <rect id="Rectangle_722" data-name="Rectangle 722" class="cls-1" width="2.064" height="2.064" transform="translate(1001.66 7243.826)"/>
    <rect id="Rectangle_723" data-name="Rectangle 723" class="cls-1" width="2.064" height="2.064" transform="translate(1005.787 7239.749)"/>
    <rect id="Rectangle_724" data-name="Rectangle 724" class="cls-1" width="4.127" height="2.064" transform="translate(981.225 7252.08)"/>
    <rect id="Rectangle_725" data-name="Rectangle 725" class="cls-1" width="4.127" height="2.013" transform="translate(981.225 7237.685)"/>
    <rect id="Rectangle_726" data-name="Rectangle 726" class="cls-1" width="2.064" height="12.331" transform="translate(985.353 7239.749)"/>
    <rect id="Rectangle_727" data-name="Rectangle 727" class="cls-1" width="2.013" height="12.331" transform="translate(979.212 7239.749)"/>
    <rect id="Rectangle_728" data-name="Rectangle 728" class="cls-1" width="2.064" height="14.395" transform="translate(989.379 7237.685)"/>
    <rect id="Rectangle_729" data-name="Rectangle 729" class="cls-1" width="4.127" height="2.064" transform="translate(991.442 7252.08)"/>
    <rect id="Rectangle_730" data-name="Rectangle 730" class="cls-1" width="2.064" height="14.395" transform="translate(995.57 7237.685)"/>
    <rect id="Rectangle_731" data-name="Rectangle 731" class="cls-1" width="4.077" height="2.013" transform="translate(1011.877 7237.685)"/>
    <rect id="Rectangle_732" data-name="Rectangle 732" class="cls-1" width="4.077" height="2.064" transform="translate(1011.877 7252.08)"/>
    <path id="Path_1620" data-name="Path 1620" class="cls-1" d="M673.34,201.677h-4.077V197.6H667.2v12.331h2.064V203.74H675.4V197.6H673.34Z" transform="translate(342.614 7042.148)"/>
    <rect id="Rectangle_733" data-name="Rectangle 733" class="cls-1" width="2.064" height="2.013" transform="translate(1015.954 7250.016)"/>
    <path id="Path_1621" data-name="Path 1621" class="cls-1" d="M592.24,200.7h-4.127v-7.2H586.1v14.395h2.013v-5.134h4.127v7.2H594.3V193.5H592.24Z" transform="translate(382.895 7044.185)"/>
    <path id="Path_1622" data-name="Path 1622" class="cls-1" d="M766.507,193.5h-2.718l-3.07,6.191-.05-6.14-2.768-.05v16.458h2.819v-5.134l1.007-2.064,2.416,7.2h2.768l-3.423-10.318Z" transform="translate(297.564 7044.185)"/>
    <path id="Path_1623" data-name="Path 1623" class="cls-1" d="M796,193.5v2.466h2.768v13.992h2.819V195.966H804.3V193.5Z" transform="translate(278.641 7044.185)"/>
    <path id="Path_1624" data-name="Path 1624" class="cls-1" d="M692.487,205.934c0,1.057-.352,1.661-1.359,1.661-1.158,0-1.51-.6-1.51-1.812v-8.3c0-1.208.352-1.812,1.51-1.812.755,0,1.359.6,1.359,1.963v1.258h0l2.819-1.46c-.1-2.366-1.46-4.228-4.178-4.228a3.962,3.962,0,0,0-4.328,4.228v8.456a3.962,3.962,0,0,0,4.328,4.228,3.919,3.919,0,0,0,4.178-4.228v-1.913h-2.819Z" transform="translate(332.879 7044.334)"/>
    <path id="Path_1625" data-name="Path 1625" class="cls-1" d="M743.087,205.934c0,1.057-.352,1.661-1.359,1.661-1.158,0-1.51-.6-1.51-1.812v-8.3c0-1.208.352-1.812,1.51-1.812.7,0,1.359.6,1.359,1.963v1.258l2.819-1.46c-.1-2.366-1.46-4.228-4.178-4.228a3.962,3.962,0,0,0-4.329,4.228v8.456a3.962,3.962,0,0,0,4.329,4.228,3.919,3.919,0,0,0,4.178-4.228v-1.913h-2.819Z" transform="translate(307.747 7044.334)"/>
    <path id="Path_1626" data-name="Path 1626" class="cls-1" d="M715.558,198.432c0-3.523-1.611-4.832-4.781-4.832H706.8v16.408h2.819v-6.744a12.748,12.748,0,0,0,1.46-.05l2.013,6.795h2.869l-2.366-7.449c.906-.453,1.963-1.51,1.963-4.127m-4.932,2.517h-1.007v-5.033h1.007c1.51,0,2.114.554,2.114,2.517s-.6,2.517-2.114,2.517" transform="translate(322.945 7044.135)"/>
    <rect id="Rectangle_734" data-name="Rectangle 734" class="cls-1" width="2.819" height="16.408" transform="translate(1040.516 7237.685)"/>
    <path id="Path_1627" data-name="Path 1627" class="cls-1" d="M781.169,202.962h3.624V200.5h-3.624v-4.53H785.9V193.5h-7.6v16.458h7.9v-2.466h-5.033Z" transform="translate(287.432 7044.185)"/>
    <path id="Path_1628" data-name="Path 1628" class="cls-1" d="M630.164,251.089H628.1V245.1h2.064a3,3,0,1,1,0,5.989m0-5.385h-1.409v4.731h1.409a2.3,2.3,0,0,0,2.466-2.366,2.327,2.327,0,0,0-2.466-2.366" transform="translate(362.034 7018.556)"/>
    <rect id="Rectangle_735" data-name="Rectangle 735" class="cls-1" width="0.654" height="5.989" transform="translate(997.08 7263.656)"/>
    <path id="Path_1629" data-name="Path 1629" class="cls-1" d="M649.67,251.091a2.96,2.96,0,0,1-3.07-3.07,3.019,3.019,0,0,1,3.02-3.121,3.134,3.134,0,0,1,2.215.805l-.453.5a2.5,2.5,0,0,0-1.812-.7,2.5,2.5,0,0,0,.1,4.983,2.607,2.607,0,0,0,1.711-.6v-1.51H649.57v-.6h2.466v2.366a3.294,3.294,0,0,1-2.366.956" transform="translate(352.845 7018.656)"/>
    <rect id="Rectangle_736" data-name="Rectangle 736" class="cls-1" width="0.654" height="5.989" transform="translate(1006.693 7263.656)"/>
    <path id="Path_1630" data-name="Path 1630" class="cls-1" d="M668.068,251.089h-.654V245.7H665.4v-.6h4.681v.6h-2.013Z" transform="translate(343.508 7018.556)"/>
    <path id="Path_1631" data-name="Path 1631" class="cls-1" d="M681.19,251.04h-.7l-.7-1.56h-3.272l-.7,1.56h-.7l2.718-6.04h.654Zm-3.07-5.234-1.359,3.07h2.718Z" transform="translate(338.69 7018.606)"/>
    <path id="Path_1632" data-name="Path 1632" class="cls-1" d="M689.9,245.1h.7v5.385h3.372v.6H689.9Z" transform="translate(331.339 7018.556)"/>
    <path id="Path_1633" data-name="Path 1633" class="cls-1" d="M708.464,251.089H706.4V245.1h2.064a3,3,0,1,1,0,5.989m0-5.385h-1.409v4.731h1.409a2.3,2.3,0,0,0,2.466-2.366,2.327,2.327,0,0,0-2.466-2.366" transform="translate(323.144 7018.556)"/>
    <rect id="Rectangle_737" data-name="Rectangle 737" class="cls-1" width="0.654" height="5.989" transform="translate(1036.49 7263.656)"/>
    <path id="Path_1634" data-name="Path 1634" class="cls-1" d="M729.577,251.089l-1.711-2.315h-1.711v2.315H725.5V245.1h2.567c1.309,0,2.164.7,2.164,1.812a1.794,1.794,0,0,1-1.611,1.762l1.862,2.466h-.906Zm-1.56-5.385h-1.862v2.416h1.862c.906,0,1.56-.453,1.56-1.258-.05-.7-.6-1.158-1.56-1.158" transform="translate(313.657 7018.556)"/>
    <path id="Path_1635" data-name="Path 1635" class="cls-1" d="M742.428,245.7H738.8v2.064h3.272v.6H738.8v2.114h3.674v.6H738.1V245.1h4.328Z" transform="translate(307.399 7018.556)"/>
    <path id="Path_1636" data-name="Path 1636" class="cls-1" d="M752.42,251.091a3.1,3.1,0,0,1,0-6.191,3.088,3.088,0,0,1,2.315.956l-.453.5a2.466,2.466,0,0,0-1.862-.805,2.471,2.471,0,0,0,0,4.933,2.52,2.52,0,0,0,1.913-.856l.453.453a3.135,3.135,0,0,1-2.366,1.007" transform="translate(301.787 7018.656)"/>
    <path id="Path_1637" data-name="Path 1637" class="cls-1" d="M764.718,251.089h-.7V245.7H762v-.6h4.731v.6h-2.013Z" transform="translate(295.528 7018.556)"/>
  </g>
</svg>
