<svg xmlns="http://www.w3.org/2000/svg" viewBox="6792.609 7206.232 104.237 32.565">
  <defs>
    <style>
      .cls-1 {
        fill: #fff;
      }
    </style>
  </defs>
  <g id="Group_375" data-name="Group 375" transform="translate(5958 -31)">
    <path id="Path_1602" data-name="Path 1602" class="cls-1" d="M383.34,209,377.6,193.652a.619.619,0,0,0-.554-.352h-1.007a.619.619,0,0,0-.554.352l-5.788,15.4.05.5a.6.6,0,0,0,.453.252h1.007a.619.619,0,0,0,.554-.352l1.862-4.933h5.788l1.862,4.933a.619.619,0,0,0,.554.352h1.007a.559.559,0,0,0,.554-.554Zm-8.909-6.493,2.114-5.889,2.114,5.889Z" transform="translate(490.376 7044.284)"/>
    <path id="Path_1603" data-name="Path 1603" class="cls-1" d="M512.839,208.9l-4.731-7.751,4.228-6.946v-.6a.554.554,0,0,0-.5-.3h-1.158a.553.553,0,0,0-.5.3l-4.077,6.744-4.077-6.744a.667.667,0,0,0-.5-.3h-1.158a.554.554,0,0,0-.5.3v.6l4.228,6.946L499.3,209v.554a.554.554,0,0,0,.5.3h1.107a.554.554,0,0,0,.5-.3l4.631-7.65,4.631,7.7a.619.619,0,0,0,.5.252h1.158a.586.586,0,0,0,.5-.554Z" transform="translate(426.007 7044.284)"/>
    <path id="Path_1604" data-name="Path 1604" class="cls-1" d="M352.651,202.611a4.8,4.8,0,0,0,2.819-4.58A4.545,4.545,0,0,0,353,193.8a6.812,6.812,0,0,0-3.02-.5h-4.53a.559.559,0,0,0-.554.554v15.4a.559.559,0,0,0,.554.554h.956a.559.559,0,0,0,.554-.554V195.313h2.97a4.48,4.48,0,0,1,1.913.252,2.565,2.565,0,0,1,1.46,2.466,2.642,2.642,0,0,1-2.315,2.919s-1.258.2-.906,1.309l3.876,7.248a.554.554,0,0,0,.5.3h1.107a.554.554,0,0,0,.5-.3v-.554Z" transform="translate(502.694 7044.284)"/>
    <path id="Path_1605" data-name="Path 1605" class="cls-1" d="M451.211,200.951a4.326,4.326,0,0,0,1.409-3.322,4.268,4.268,0,0,0-4.48-4.429h-5.587a.559.559,0,0,0-.554.554v15.452a.559.559,0,0,0,.554.554h5.839a4.637,4.637,0,0,0,4.882-4.832,4.832,4.832,0,0,0-2.064-3.976m-2.919,6.795h-4.228V195.264h4.027a2.185,2.185,0,0,1,2.366,2.416,2.26,2.26,0,0,1-1.762,2.366,1.018,1.018,0,0,0-.805,1.057,1.03,1.03,0,0,0,.856,1.057,2.637,2.637,0,0,1,2.315,2.819,2.541,2.541,0,0,1-2.768,2.768" transform="translate(454.466 7044.334)"/>
    <path id="Path_1606" data-name="Path 1606" class="cls-1" d="M328.311,200.951a4.326,4.326,0,0,0,1.409-3.322,4.268,4.268,0,0,0-4.48-4.429h-5.587a.559.559,0,0,0-.554.554v15.452a.559.559,0,0,0,.554.554h5.788a4.637,4.637,0,0,0,4.882-4.832,4.438,4.438,0,0,0-2.013-3.976m-2.869,6.795h-4.228V195.264h4.027a2.185,2.185,0,0,1,2.366,2.416,2.26,2.26,0,0,1-1.762,2.366.977.977,0,0,0-.805,1.057,1.03,1.03,0,0,0,.856,1.057,2.637,2.637,0,0,1,2.315,2.819,2.541,2.541,0,0,1-2.768,2.768" transform="translate(515.509 7044.334)"/>
    <path id="Path_1607" data-name="Path 1607" class="cls-1" d="M402.21,193.3h-.956a.559.559,0,0,0-.554.554v15.4a.559.559,0,0,0,.554.554h.956a.559.559,0,0,0,.554-.554v-15.4a.5.5,0,0,0-.554-.554" transform="translate(474.979 7044.284)"/>
    <path id="Path_1608" data-name="Path 1608" class="cls-1" d="M422.931,209.909a.559.559,0,0,0,.554-.554v-15.4a.559.559,0,0,0-.554-.554h-.956l-.4.151-.151.4v12.18l-8.959-12.482a.6.6,0,0,0-.453-.252h-.856a.559.559,0,0,0-.554.554V209.3a.559.559,0,0,0,.554.554h.956a.559.559,0,0,0,.554-.554v-12.13l8.909,12.482a.6.6,0,0,0,.453.252Z" transform="translate(470.063 7044.235)"/>
    <path id="Path_1609" data-name="Path 1609" class="cls-1" d="M474.907,192.6a8.607,8.607,0,1,0,8.607,8.607,8.6,8.6,0,0,0-8.607-8.607m0,15.049a6.442,6.442,0,1,1,6.443-6.442,6.423,6.423,0,0,1-6.443,6.442" transform="translate(442.397 7044.632)"/>
    <path id="Path_1610" data-name="Path 1610" class="cls-1" d="M359.18,246.657a1.475,1.475,0,0,1-.956,1.409c.7.2,1.309.6,1.309,1.46,0,1.057-.856,1.661-2.164,1.661H354.7V245.2h2.567c1.158-.05,1.913.554,1.913,1.46m-.654.1c0-.6-.453-1.007-1.309-1.007h-1.862v2.064h1.762c.856,0,1.409-.352,1.409-1.057m.3,2.668c0-.654-.554-1.057-1.611-1.057h-1.862v2.114h2.013c.906.05,1.46-.352,1.46-1.057" transform="translate(497.827 7018.509)"/>
    <path id="Path_1611" data-name="Path 1611" class="cls-1" d="M371.577,251.089l-1.711-2.315h-1.711v2.315H367.5V245.1h2.567c1.309,0,2.164.7,2.164,1.812a1.794,1.794,0,0,1-1.611,1.762l1.862,2.466h-.906Zm-1.611-5.385H368.1v2.416h1.862c.906,0,1.56-.453,1.56-1.258-.05-.7-.6-1.158-1.56-1.158" transform="translate(491.469 7018.556)"/>
    <path id="Path_1612" data-name="Path 1612" class="cls-1" d="M385.141,251.04h-.7l-.7-1.56H380.46l-.7,1.56H379l2.718-6.04h.654Zm-3.07-5.234-1.359,3.07h2.718Z" transform="translate(485.757 7018.606)"/>
    <path id="Path_1613" data-name="Path 1613" class="cls-1" d="M398.329,245.1h.654v5.989h-.554l-3.876-4.933v4.933H393.9V245.1h.654l3.775,4.782Z" transform="translate(478.357 7018.556)"/>
    <path id="Path_1614" data-name="Path 1614" class="cls-1" d="M409.864,251.089H407.8V245.1h2.064a3,3,0,1,1,0,5.989m0-5.385h-1.409v4.731h1.409a2.3,2.3,0,0,0,2.466-2.366,2.327,2.327,0,0,0-2.466-2.366" transform="translate(471.453 7018.556)"/>
    <rect id="Rectangle_715" data-name="Rectangle 715" class="cls-1" width="0.654" height="5.989" transform="translate(886.148 7263.656)"/>
    <path id="Path_1615" data-name="Path 1615" class="cls-1" d="M431.179,245.1h.7v5.989h-.554l-3.876-4.933v4.933H426.8V245.1h.654l3.725,4.782Z" transform="translate(462.016 7018.556)"/>
    <path id="Path_1616" data-name="Path 1616" class="cls-1" d="M443.07,251.091a2.96,2.96,0,0,1-3.07-3.07,3.019,3.019,0,0,1,3.02-3.121,3.134,3.134,0,0,1,2.215.805l-.453.5a2.5,2.5,0,0,0-1.812-.7,2.5,2.5,0,0,0,.1,4.983,2.607,2.607,0,0,0,1.711-.6v-1.51H443.02v-.6h2.466v2.366a3.329,3.329,0,0,1-2.416.956" transform="translate(455.46 7018.656)"/>
    <path id="Path_1617" data-name="Path 1617" class="cls-1" d="M459.4,245.7v-.6h3.825v.5l-1.862,2.114c1.057.1,1.963.6,1.963,1.711a1.887,1.887,0,0,1-2.013,1.812,2.7,2.7,0,0,1-2.215-1.057l.5-.453a2.193,2.193,0,0,0,1.762.906,1.209,1.209,0,0,0,1.309-1.158c0-.755-.7-1.158-1.661-1.158h-.453l-.151-.4,1.913-2.114H459.4Z" transform="translate(445.973 7018.556)"/>
    <path id="Path_1618" data-name="Path 1618" class="cls-1" d="M473.876,246.158a2.223,2.223,0,0,0-1.409-.6c-1.107,0-1.762,1.107-1.762,2.668a1.933,1.933,0,0,1,1.711-.906,1.908,1.908,0,0,1,2.064,1.862,2.056,2.056,0,0,1-2.164,2.013,2.2,2.2,0,0,1-1.56-.6,2.9,2.9,0,0,1-.755-2.315c0-1.812.906-3.272,2.466-3.272a2.515,2.515,0,0,1,1.762.7Zm-1.51,1.711a1.344,1.344,0,1,0,0,2.668,1.339,1.339,0,1,0,0-2.668" transform="translate(440.56 7018.606)"/>
    <path id="Path_1619" data-name="Path 1619" class="cls-1" d="M484.017,251.091c-1.56,0-2.517-1.409-2.517-3.07s1.007-3.121,2.517-3.121c1.56,0,2.517,1.409,2.517,3.07,0,1.711-1.007,3.121-2.517,3.121m0-5.587c-1.107,0-1.812,1.158-1.812,2.466s.7,2.517,1.862,2.517c1.107,0,1.812-1.158,1.812-2.466-.05-1.309-.755-2.517-1.862-2.517" transform="translate(434.848 7018.656)"/>
  </g>
</svg>
