<svg xmlns="http://www.w3.org/2000/svg" viewBox="6966.153 7314 30.018 36.236">
  <defs>
    <style>
      .cls-1 {
        fill: #fff;
      }
    </style>
  </defs>
  <g id="Group_380" data-name="Group 380" transform="translate(5958 -31)">
    <path id="Path_1672" data-name="Path 1672" class="cls-1" d="M15.1,2H13.063L11.688,7.322,10.253,2H8.1c.419,1.256.9,2.511,1.316,3.767a31.367,31.367,0,0,1,1.256,4.305v5.5H12.7v-5.5Zm5.441,10.285V8.757a3.818,3.818,0,0,0-.6-2.392,2.371,2.371,0,0,0-2.153-1.017,2.665,2.665,0,0,0-2.153,1.017,3.818,3.818,0,0,0-.6,2.392v3.528a3.818,3.818,0,0,0,.6,2.392,2.371,2.371,0,0,0,2.153,1.017,2.665,2.665,0,0,0,2.153-1.017A3.818,3.818,0,0,0,20.538,12.285Zm-1.854.3c0,.957-.3,1.375-.9,1.375s-.9-.478-.9-1.375V8.338c0-.957.3-1.375.9-1.375s.9.478.9,1.375Zm8.611,2.93V5.408H25.441v7.714c-.419.6-.777.837-1.136.837a.378.378,0,0,1-.419-.419V5.408H22.033v8.013a4.337,4.337,0,0,0,.179,1.495,1.125,1.125,0,0,0,1.2.777A2.961,2.961,0,0,0,25.5,14.438v1.076h1.794Z" transform="translate(1004.896 7343)"/>
    <path id="Path_1673" data-name="Path 1673" class="cls-1" d="M29.48,31.049a3.745,3.745,0,0,0-3.229-2.93A100.394,100.394,0,0,0,15.009,27.7a100.394,100.394,0,0,0-11.242.419,3.819,3.819,0,0,0-3.229,2.93A30.947,30.947,0,0,0,0,38.1,31.469,31.469,0,0,0,.538,45.22a3.745,3.745,0,0,0,3.229,2.93,100.393,100.393,0,0,0,11.242.419,100.393,100.393,0,0,0,11.242-.419,3.819,3.819,0,0,0,3.229-2.93,30.947,30.947,0,0,0,.538-7.056A39.886,39.886,0,0,0,29.48,31.049ZM8.551,33.082H6.4V44.622H4.365V33.082H2.212V31.168H8.551Zm5.441,11.541H12.2V43.546A2.857,2.857,0,0,1,10.106,44.8a1.2,1.2,0,0,1-1.2-.718,4.337,4.337,0,0,1-.179-1.495V34.636h1.794v8.073c.06.3.179.419.419.419.359,0,.718-.3,1.136-.837V34.636h1.794v9.986Zm6.936-2.99a8.394,8.394,0,0,1-.179,2.033A1.46,1.46,0,0,1,19.314,44.8a2.37,2.37,0,0,1-1.854-1.136v.957H15.667V31.168h1.794v4.365a2.451,2.451,0,0,1,1.854-1.076,1.4,1.4,0,0,1,1.435,1.136,8.065,8.065,0,0,1,.179,2.033Zm6.817-1.674H24.1v1.794c0,.9.3,1.375.9,1.375a.829.829,0,0,0,.837-.718c0-.12.06-.478.06-1.2h1.854v.239a5.867,5.867,0,0,1-.06,1.2,2.149,2.149,0,0,1-.419,1.076A2.519,2.519,0,0,1,25.055,44.8a2.7,2.7,0,0,1-2.212-1.017,4.036,4.036,0,0,1-.6-2.332V37.925a3.942,3.942,0,0,1,.538-2.332,2.788,2.788,0,0,1,4.305,0,4.071,4.071,0,0,1,.538,2.332v2.033Z" transform="translate(1008.153 7332.667)"/>
    <path id="Path_1674" data-name="Path 1674" class="cls-1" d="M30,41.8a1.246,1.246,0,0,0-.9.419v6.1a1.246,1.246,0,0,0,.9.419c.538,0,.777-.419.777-1.375V43.116C30.774,42.278,30.535,41.8,30,41.8Z" transform="translate(996.454 7326.999)"/>
    <path id="Path_1675" data-name="Path 1675" class="cls-1" d="M41.2,41.8c-.6,0-.9.478-.9,1.375v.9h1.794v-.9C42.154,42.278,41.795,41.8,41.2,41.8Z" transform="translate(991.951 7326.999)"/>
  </g>
</svg>
