<svg xmlns="http://www.w3.org/2000/svg" viewBox="6709.308 7109.293 416.447 37.447">
  <defs>
    <style>
      .cls-1 {
        fill: #fff;
      }
    </style>
  </defs>
  <g id="Group_372" data-name="Group 372" transform="translate(5958 -31)">
    <path id="Path_1552" data-name="Path 1552" class="cls-1" d="M427.6,8.4h0A7.667,7.667,0,0,1,435.552.7a8.534,8.534,0,0,1,5.99,2.164l-2.416,2.869a5.343,5.343,0,0,0-3.574-1.359A3.894,3.894,0,0,0,431.778,8.4v.05a3.871,3.871,0,0,0,4.027,4.077,4.118,4.118,0,0,0,2.366-.6V10.112H435.25V7.092h6.795v6.644A9.822,9.822,0,0,1,435.653,16c-4.631.05-8.053-3.121-8.053-7.6" transform="translate(463.33 7139.945)"/>
    <path id="Path_1553" data-name="Path 1553" class="cls-1" d="M460.9,1.3h7a6.547,6.547,0,0,1,4.832,1.611,4.589,4.589,0,0,1,1.309,3.423v.05a4.648,4.648,0,0,1-3.02,4.53l3.523,5.134h-4.731l-2.97-4.48h-1.862v4.48H460.9Zm6.795,7.1c1.409,0,2.215-.654,2.215-1.762v-.05c0-1.158-.856-1.762-2.215-1.762h-2.718V8.4Z" transform="translate(446.791 7139.647)"/>
    <path id="Path_1554" data-name="Path 1554" class="cls-1" d="M490.6,9.6V1.3h4.178V9.5c0,2.114,1.057,3.121,2.718,3.121s2.718-.956,2.718-3.02V1.3h4.178V9.5c0,4.782-2.718,6.845-6.946,6.845-4.178,0-6.845-2.114-6.845-6.744" transform="translate(432.039 7139.647)"/>
    <path id="Path_1555" data-name="Path 1555" class="cls-1" d="M522.8,1.3h6.342c3.725,0,6.141,1.913,6.141,5.184v.05c0,3.473-2.668,5.335-6.342,5.335h-2.013V16.1H522.85V1.3Zm6.04,7.348c1.46,0,2.366-.755,2.366-1.913v-.05c0-1.258-.906-1.963-2.366-1.963h-1.913V8.648h1.913Z" transform="translate(416.047 7139.647)"/>
    <path id="Path_1556" data-name="Path 1556" class="cls-1" d="M550,8.4h0a7.984,7.984,0,0,1,15.955-.05V8.4A7.983,7.983,0,0,1,550,8.4m11.778,0h0A3.86,3.86,0,0,0,558,4.374,3.762,3.762,0,0,0,554.278,8.3v.1a3.847,3.847,0,0,0,3.775,3.976A3.776,3.776,0,0,0,561.778,8.4" transform="translate(402.537 7139.945)"/>
    <path id="Path_1557" data-name="Path 1557" class="cls-1" d="M596.5,8.4h0a7.957,7.957,0,0,1,15.9-.05V8.4a7.957,7.957,0,0,1-15.9,0m11.727,0h0a3.86,3.86,0,0,0-3.775-4.027A3.762,3.762,0,0,0,600.728,8.3v.1a3.847,3.847,0,0,0,3.775,3.976A3.746,3.746,0,0,0,608.227,8.4" transform="translate(379.441 7139.945)"/>
    <path id="Path_1558" data-name="Path 1558" class="cls-1" d="M632.4,1.3h4.329l3.523,5.687L643.775,1.3H648.1V16.047h-4.077V7.591l-3.775,5.788h-.1l-3.725-5.738v8.405H632.4Z" transform="translate(361.61 7139.647)"/>
    <path id="Path_1559" data-name="Path 1559" class="cls-1" d="M434.644,55.392A6.635,6.635,0,0,1,428,48.5v-.05a6.748,6.748,0,0,1,6.694-6.946,6.874,6.874,0,0,1,5.184,2.164l-.7.755a6.043,6.043,0,0,0-4.53-1.963,5.714,5.714,0,0,0-5.637,5.989v.05a5.8,5.8,0,0,0,5.688,6.04,6.3,6.3,0,0,0,4.631-2.064l.654.654a7.465,7.465,0,0,1-5.335,2.265" transform="translate(461.42 7119.681)"/>
    <path id="Path_1560" data-name="Path 1560" class="cls-1" d="M461.994,55.392a6.641,6.641,0,0,1-6.694-6.9v-.05a6.755,6.755,0,0,1,6.744-6.946,6.641,6.641,0,0,1,6.694,6.9v.05a6.755,6.755,0,0,1-6.744,6.946m5.688-6.9a5.806,5.806,0,0,0-5.738-6.04,5.722,5.722,0,0,0-5.687,5.989v.05a5.722,5.722,0,1,0,11.425,0Z" transform="translate(447.86 7119.681)"/>
    <path id="Path_1561" data-name="Path 1561" class="cls-1" d="M500.327,55.388V43.762l-5.285,7.7h-.1l-5.285-7.7V55.388H488.7V42h.956l5.335,7.952L500.377,42h.956V55.388Z" transform="translate(431.271 7119.432)"/>
    <path id="Path_1562" data-name="Path 1562" class="cls-1" d="M526.786,55.69c-3.221,0-5.486-2.013-5.486-5.788V42.1h1.007v7.7c0,3.171,1.711,4.983,4.53,4.983,2.718,0,4.48-1.661,4.48-4.882V42.1h1.007v7.7c-.05,3.825-2.315,5.889-5.536,5.889" transform="translate(415.08 7119.383)"/>
    <path id="Path_1563" data-name="Path 1563" class="cls-1" d="M560.968,55.388,551.556,43.51V55.388H550.6V42h.906l9.261,11.677V42h.956V55.388Z" transform="translate(400.527 7119.432)"/>
    <rect id="Rectangle_709" data-name="Rectangle 709" class="cls-1" width="1.007" height="13.388" transform="translate(966.377 7161.482)"/>
    <path id="Path_1564" data-name="Path 1564" class="cls-1" d="M596.544,55.392a6.635,6.635,0,0,1-6.644-6.9v-.05a6.748,6.748,0,0,1,6.694-6.946,6.874,6.874,0,0,1,5.184,2.164l-.7.755a6.043,6.043,0,0,0-4.53-1.963,5.714,5.714,0,0,0-5.637,5.989v.05a5.8,5.8,0,0,0,5.688,6.04,6.3,6.3,0,0,0,4.63-2.064l.654.654a7.465,7.465,0,0,1-5.335,2.265" transform="translate(381.007 7119.681)"/>
    <path id="Path_1565" data-name="Path 1565" class="cls-1" d="M629.082,55.289l-1.711-3.775h-7.9l-1.711,3.775H616.7L622.941,41.8h.956l6.241,13.489Zm-5.637-12.382-3.523,7.751h7.046Z" transform="translate(367.696 7119.532)"/>
    <path id="Path_1566" data-name="Path 1566" class="cls-1" d="M647.9,48.546a6.718,6.718,0,0,1,6.694-6.946,6.975,6.975,0,0,1,5.184,2.164l-.7.755a6.043,6.043,0,0,0-4.53-1.963,5.714,5.714,0,0,0-5.637,5.989,5.759,5.759,0,0,0,5.637,6.04,6.3,6.3,0,0,0,4.631-2.064l.654.654a6.925,6.925,0,0,1-5.083,2.315l-1.309,2.617-1.057-.5,1.46-2.114a6.809,6.809,0,0,1-5.939-6.946" transform="translate(352.2 7119.631)"/>
    <path id="Path_1567" data-name="Path 1567" class="cls-1" d="M687.182,52.359l-1.711-3.775h-7.9l-1.711,3.775H674.8l6.241-13.489H682l6.241,13.489Zm-5.687-12.432-3.523,7.751h7.047Zm1.258-2.215c-.7,0-1.812-.805-2.466-.805-.453,0-.654.2-.956.956l-.654-.151c.352-1.409.856-1.762,1.611-1.762.7,0,1.812.805,2.466.805.453,0,.654-.252.956-.956l.654.2c-.352,1.309-.856,1.711-1.611,1.711" transform="translate(338.839 7122.512)"/>
    <path id="Path_1568" data-name="Path 1568" class="cls-1" d="M712.694,55.392A6.671,6.671,0,0,1,706,48.5v-.05a6.755,6.755,0,0,1,6.745-6.946,6.641,6.641,0,0,1,6.694,6.9v.05a6.724,6.724,0,0,1-6.745,6.946m5.738-6.9a5.806,5.806,0,0,0-5.738-6.04,5.722,5.722,0,0,0-5.687,5.989v.05a5.722,5.722,0,1,0,11.425,0Z" transform="translate(323.342 7119.681)"/>
    <rect id="Rectangle_710" data-name="Rectangle 710" class="cls-1" width="1.007" height="13.388" transform="translate(1052.042 7161.482)"/>
    <path id="Path_1569" data-name="Path 1569" class="cls-1" d="M771.668,55.388,762.256,43.51V55.388H761.3V42h.906l9.261,11.677V42h.956V55.388Z" transform="translate(295.876 7119.432)"/>
    <path id="Path_1570" data-name="Path 1570" class="cls-1" d="M795.037,43.006V55.488h-.956V43.006H789.4V42.1h10.318v.906Z" transform="translate(281.919 7119.383)"/>
    <path id="Path_1571" data-name="Path 1571" class="cls-1" d="M815.9,55.388V42h9.513v.956h-8.506v5.235h7.65V49.1h-7.65v5.386h8.607v.906Z" transform="translate(268.757 7119.432)"/>
    <path id="Path_1572" data-name="Path 1572" class="cls-1" d="M846.944,55.392a6.537,6.537,0,0,1-6.745-6.9v-.05a6.7,6.7,0,0,1,6.644-6.946,6.967,6.967,0,0,1,4.882,1.762l-.654.755a6.092,6.092,0,0,0-4.329-1.611,5.692,5.692,0,0,0-5.536,5.989v.05c0,3.473,2.164,6.04,5.738,6.04a7.061,7.061,0,0,0,4.278-1.51V49.15h-4.48v-.906h5.436v5.184a8.349,8.349,0,0,1-5.234,1.963" transform="translate(256.688 7119.681)"/>
    <path id="Path_1573" data-name="Path 1573" class="cls-1" d="M880.764,55.488l-4.278-5.536h-4.379v5.536H871.1V42.1h5.637c2.869,0,4.781,1.56,4.781,3.825v.05c0,2.215-1.661,3.523-3.926,3.825l4.429,5.738h-1.258Zm-.2-9.563c0-1.812-1.409-2.919-3.825-2.919h-4.58v6.04h4.53c2.215-.05,3.876-1.158,3.876-3.121Z" transform="translate(241.34 7119.383)"/>
    <path id="Path_1574" data-name="Path 1574" class="cls-1" d="M908.682,55.289l-1.711-3.775h-7.9l-1.711,3.775H896.3L902.541,41.8h.956l6.241,13.489Zm-5.637-12.382-3.523,7.751h7.047Z" transform="translate(228.824 7119.532)"/>
    <path id="Path_1575" data-name="Path 1575" class="cls-1" d="M933.079,55.438H928.6V42.1h4.48c4.228,0,7.1,2.869,7.1,6.644v.05c.05,3.725-2.869,6.644-7.1,6.644m6.09-6.644a5.743,5.743,0,0,0-6.09-5.788h-3.473V54.582h3.473c3.725-.05,6.09-2.567,6.09-5.788Z" transform="translate(212.781 7119.383)"/>
    <path id="Path_1576" data-name="Path 1576" class="cls-1" d="M966.682,55.289l-1.711-3.775h-7.9l-1.711,3.775H954.3L960.541,41.8h.956l6.241,13.489Zm-5.637-12.382-3.523,7.751h7.046Z" transform="translate(200.016 7119.532)"/>
    <path id="Path_1577" data-name="Path 1577" class="cls-1" d="M269.16,1.56a5.27,5.27,0,0,0-5.486.453L240.622,18.874V6.291a5.245,5.245,0,0,0-8.355-4.228l-23.1,16.861V6.241a5.254,5.254,0,0,0-8.405-4.178l-9.664,7.3a11.781,11.781,0,0,0-3.372-5.939A13.7,13.7,0,0,0,178.362,0a25,25,0,0,0-13.439,4.53A27.636,27.636,0,0,0,155.411,15.4a17.615,17.615,0,0,0-1.812,7.449,12.277,12.277,0,0,0,3.725,9.009,13.445,13.445,0,0,0,9.311,3.372h.05a25,25,0,0,0,13.439-4.53c.4-.3.805-.554,1.208-.856h0l.252-.2.05-.05L198.7,16.71V28.739a4.767,4.767,0,0,0,.252,2.064,5.243,5.243,0,0,0,4.983,3.624h0a5.525,5.525,0,0,0,3.372-1.208l22.851-16.609V29.293a5.3,5.3,0,0,0,3.674,5.033,5.17,5.17,0,0,0,5.134-1.208l22.6-16.509V29.243a5.234,5.234,0,1,0,10.469,0v-23A5.276,5.276,0,0,0,269.16,1.56M181.583,17.666c-2.164,4.58-7.6,8.3-12.231,8.3-4.58,0-6.593-3.725-4.429-8.3s7.6-8.3,12.231-8.3c4.58-.05,6.593,3.674,4.429,8.3" transform="translate(597.711 7140.293)"/>
  </g>
</svg>
