<svg xmlns="http://www.w3.org/2000/svg" viewBox="7786 7322.68 48.939 20">
  <defs>
    <style>
      .cls-1 {
        fill: #fff;
      }
    </style>
  </defs>
  <g id="Group_320" data-name="Group 320" transform="translate(7786 7322.68)">
    <path id="Path_1665" data-name="Path 1665" class="cls-1" d="M6.558,1.8V4.329H2.708V9.777H5.383v2.529H2.708v8.907H0V1.8Z" transform="translate(0 -1.506)"/>
    <path id="Path_1666" data-name="Path 1666" class="cls-1" d="M52.324,21.229H49.6V1.8h2.708V21.229Z" transform="translate(-41.509 -1.506)"/>
    <path id="Path_1667" data-name="Path 1667" class="cls-1" d="M80.524,13.98v.848c0,2.007.343,2.659,1.4,2.659.816,0,1.223-.669,1.223-1.925,0-1.289-.326-2.039-1.664-3.817L80.149,9.772c-1.664-2.512-2.219-3.85-2.219-5.579C77.931,1.631,79.464,0,81.911,0a3.412,3.412,0,0,1,3.556,2.822,9.155,9.155,0,0,1,.147,2.414L82.955,5.5a12.518,12.518,0,0,0-.082-1.746c-.082-.783-.522-1.223-1.142-1.223-.734,0-1.142.636-1.142,1.811,0,1.191.114,1.452,1.925,4.16l1.37,1.974a10.213,10.213,0,0,1,1.958,5.481c0,2.594-1.436,4.046-3.964,4.046a3.7,3.7,0,0,1-3.23-1.485,5.046,5.046,0,0,1-.848-3.377c0-.408,0-.587.033-1.044Z" transform="translate(-65.108)"/>
    <path id="Path_1668" data-name="Path 1668" class="cls-1" d="M141.108,12.322v8.907H138.4V1.8h2.708V9.777h2.219V1.8h2.708V21.229h-2.708V12.322Z" transform="translate(-115.823 -1.506)"/>
    <path id="Path_1669" data-name="Path 1669" class="cls-1" d="M254.129,4.329H251.6V1.8h7.9V4.329h-2.659v16.9h-2.708Z" transform="translate(-210.556 -1.506)"/>
  </g>
</svg>
