<svg xmlns="http://www.w3.org/2000/svg" viewBox="6632 7203.212 130.359 35.635">
  <defs>
    <style>
      .cls-1 {
        fill: #fff;
      }
    </style>
  </defs>
  <g id="Group_376" data-name="Group 376" transform="translate(5958 -31)">
    <path id="Path_1578" data-name="Path 1578" class="cls-1" d="M204.815,200.131a4.632,4.632,0,0,0-1.762-3.674,6.245,6.245,0,0,0-4.027-.956H195v15.351h1.711v-6.14h2.265a6.245,6.245,0,0,0,4.027-.956,4.365,4.365,0,0,0,1.812-3.624m-2.668,2.215-.1.1a4.773,4.773,0,0,1-2.869.6h-2.416v-5.788h2.416a4.55,4.55,0,0,1,2.97.654,3.042,3.042,0,0,1,0,4.429" transform="translate(577.147 7043.191)"/>
    <rect id="Rectangle_711" data-name="Rectangle 711" class="cls-1" width="1.711" height="15.301" transform="translate(768.926 7238.742)"/>
    <path id="Path_1579" data-name="Path 1579" class="cls-1" d="M170.727,210.9h1.711v-13.59h4.077V195.6H166.7v1.711h4.027Z" transform="translate(591.203 7043.142)"/>
    <path id="Path_1580" data-name="Path 1580" class="cls-1" d="M224.9,210.7s1.611-3.574,2.064-4.58h7.147c.352.805,1.46,3.221,2.064,4.58l.1.3h1.862l-6.845-15.3h-1.51l-.1.252s-5.084,11.425-5.99,13.338h-4.983V195.7H217v15.251h7.8Zm5.637-12.583c.7,1.611,2.164,4.832,2.768,6.241h-5.536c.6-1.359,2.064-4.58,2.768-6.241" transform="translate(566.22 7043.092)"/>
    <path id="Path_1581" data-name="Path 1581" class="cls-1" d="M164.4,209.19h-6.291V195.6H156.4v15.3h8Z" transform="translate(596.319 7043.142)"/>
    <path id="Path_1582" data-name="Path 1582" class="cls-1" d="M41.953,196.556a6.245,6.245,0,0,0-4.027-.956H33.9v15.3h1.711v-6.14h2.315a6.245,6.245,0,0,0,4.027-.956,4.532,4.532,0,0,0,1.762-3.624,4.761,4.761,0,0,0-1.762-3.624M41,202.395a4.55,4.55,0,0,1-2.97.654H35.611v-5.738h2.416a4.638,4.638,0,0,1,2.97.654,2.782,2.782,0,0,1,.956,2.215A2.859,2.859,0,0,1,41,202.395" transform="translate(657.163 7043.142)"/>
    <path id="Path_1583" data-name="Path 1583" class="cls-1" d="M65.917,205.465V195.6H64.206v9.764a4.027,4.027,0,0,1-.805,3.07,3.587,3.587,0,0,1-5.184,0,4.027,4.027,0,0,1-.805-3.07V195.6H55.7v9.865c0,1.057-.05,3.423,2.013,4.832a5.058,5.058,0,0,0,3.07.956,5.412,5.412,0,0,0,3.07-.956,5.157,5.157,0,0,0,2.064-4.832" transform="translate(646.335 7043.142)"/>
    <path id="Path_1584" data-name="Path 1584" class="cls-1" d="M7.9,195.3a7.9,7.9,0,1,0,7.9,7.9,7.883,7.883,0,0,0-7.9-7.9m0,14.093a6.191,6.191,0,1,1,6.191-6.191A6.186,6.186,0,0,1,7.9,209.393" transform="translate(674 7043.291)"/>
    <path id="Path_1585" data-name="Path 1585" class="cls-1" d="M111.315,211.1a5.412,5.412,0,0,0,3.07-.956,5.215,5.215,0,0,0,2.013-4.832v-9.865h-1.711v9.764a4.027,4.027,0,0,1-.805,3.07,3.4,3.4,0,0,1-2.567,1.107,3.511,3.511,0,0,1-2.617-1.107,4.027,4.027,0,0,1-.805-3.07v-9.764h-1.661l-9.11,12.382V195.451H95.46l-7.2,9.764-.05-.151c-.6-1.762-2.114-2.466-4.53-3.121-2.013-.554-2.919-1.309-2.919-2.466a2.4,2.4,0,0,1,.7-1.711,2.982,2.982,0,0,1,2.164-.755,2.528,2.528,0,0,1,2.718,2.265l.05.4h1.711l-.05-.5a4.207,4.207,0,0,0-4.379-3.876,4.823,4.823,0,0,0-3.473,1.359,3.943,3.943,0,0,0-1.107,2.869c0,2.919,2.819,3.674,4.228,4.077,1.46.4,2.869.805,3.322,2.013a1.963,1.963,0,0,1,0,1.51,3.187,3.187,0,0,1-3.02,2.265,3.316,3.316,0,0,1-2.013-.7,3.211,3.211,0,0,1-1.158-2.164l-.05-.453H78.7v.5a4.991,4.991,0,0,0,1.913,3.574,4.917,4.917,0,0,0,2.97,1.007,5.008,5.008,0,0,0,3.926-1.963h0c.1-.151.3-.352.554-.755l7.348-9.966v12.281h1.661l9.16-12.382v6.946c0,1.007-.05,3.423,2.013,4.832a5.412,5.412,0,0,0,3.07.956" transform="translate(634.911 7043.291)"/>
    <path id="Path_1586" data-name="Path 1586" class="cls-1" d="M143.209,191.784h.3V186.6H141.8v5.184h1.409Z" transform="translate(603.57 7047.612)"/>
    <rect id="Rectangle_712" data-name="Rectangle 712" class="cls-1" width="0.654" height="5.989" transform="translate(683.16 7263.656)"/>
    <path id="Path_1587" data-name="Path 1587" class="cls-1" d="M25.464,251.089H23.4V245.1h2.064a3,3,0,0,1,3.171,2.97,2.948,2.948,0,0,1-3.171,3.02m0-5.385H24.054v4.731h1.409a2.368,2.368,0,1,0,0-4.731" transform="translate(662.377 7018.556)"/>
    <path id="Path_1588" data-name="Path 1588" class="cls-1" d="M41.429,245.7H37.754v2.064h3.272v.6H37.754v2.114h3.725v.6H37.1V245.1h4.329Z" transform="translate(655.573 7018.556)"/>
    <rect id="Rectangle_713" data-name="Rectangle 713" class="cls-1" width="0.654" height="5.989" transform="translate(698.663 7263.656)"/>
    <path id="Path_1589" data-name="Path 1589" class="cls-1" d="M59.29,251.04h-.7l-.7-1.56H54.609l-.7,1.56h-.7L55.918,245h.654Zm-3.02-5.234-1.359,3.07h2.718Z" transform="translate(647.577 7018.606)"/>
    <path id="Path_1590" data-name="Path 1590" class="cls-1" d="M69.567,247.668c1.359.3,1.963.755,1.963,1.711,0,1.057-.856,1.711-2.064,1.711A3.543,3.543,0,0,1,67,250.134l.4-.5a2.851,2.851,0,0,0,2.064.856c.805,0,1.309-.4,1.309-1.007,0-.554-.3-.906-1.56-1.158-1.359-.3-2.013-.755-2.013-1.762a1.791,1.791,0,0,1,1.963-1.661,3.11,3.11,0,0,1,2.114.755l-.4.5a2.614,2.614,0,0,0-1.711-.654c-.755,0-1.258.453-1.258.956.05.6.352.906,1.661,1.208" transform="translate(640.722 7018.656)"/>
    <path id="Path_1591" data-name="Path 1591" class="cls-1" d="M90.291,250.738l-.453.5-.805-.7a3.028,3.028,0,0,1-1.913.654,2.977,2.977,0,0,1-3.02-3.07A3.061,3.061,0,0,1,87.17,245a2.977,2.977,0,0,1,3.02,3.07,3.162,3.162,0,0,1-.7,2.013Zm-2.869-1.611.453-.5,1.107,1.007a2.626,2.626,0,0,0,.5-1.56,2.368,2.368,0,1,0-2.366,2.466,2.108,2.108,0,0,0,1.359-.453Z" transform="translate(632.229 7018.606)"/>
    <path id="Path_1592" data-name="Path 1592" class="cls-1" d="M104.283,248.523a2.373,2.373,0,0,1-2.517,2.668,2.344,2.344,0,0,1-2.466-2.617V245.1h.654v3.423c0,1.309.7,2.013,1.812,2.013a1.714,1.714,0,0,0,1.812-1.963V245.1h.654v3.423Z" transform="translate(624.68 7018.556)"/>
    <path id="Path_1593" data-name="Path 1593" class="cls-1" d="M117.129,245.7h-3.674v2.064h3.272v.6h-3.272v2.114h3.725v.6H112.8V245.1h4.329Z" transform="translate(617.974 7018.556)"/>
    <path id="Path_1594" data-name="Path 1594" class="cls-1" d="M134.429,245.7h-3.674v2.164h3.272v.6h-3.272v2.617H130.1V245.1h4.329Z" transform="translate(609.382 7018.556)"/>
    <path id="Path_1595" data-name="Path 1595" class="cls-1" d="M146.483,248.523a2.373,2.373,0,0,1-2.517,2.668,2.344,2.344,0,0,1-2.466-2.617V245.1h.654v3.423c0,1.309.7,2.013,1.812,2.013a1.714,1.714,0,0,0,1.812-1.963V245.1h.654v3.423Z" transform="translate(603.72 7018.556)"/>
    <path id="Path_1596" data-name="Path 1596" class="cls-1" d="M159.379,245.1h.654v5.989h-.5l-3.876-4.933v4.933H155V245.1h.6l3.775,4.782Z" transform="translate(597.014 7018.556)"/>
    <path id="Path_1597" data-name="Path 1597" class="cls-1" d="M171.22,251.091a3.1,3.1,0,0,1,0-6.191,3.088,3.088,0,0,1,2.315.956l-.453.5a2.466,2.466,0,0,0-1.862-.805,2.471,2.471,0,0,0,0,4.933,2.52,2.52,0,0,0,1.913-.856l.453.453a2.98,2.98,0,0,1-2.366,1.007" transform="translate(590.458 7018.656)"/>
    <rect id="Rectangle_714" data-name="Rectangle 714" class="cls-1" width="0.654" height="5.989" transform="translate(765.554 7263.656)"/>
    <path id="Path_1598" data-name="Path 1598" class="cls-1" d="M189.57,251.091a3.019,3.019,0,0,1-3.07-3.07,3.061,3.061,0,0,1,3.07-3.121,3.1,3.1,0,0,1,0,6.191m0-5.587a2.468,2.468,0,1,0,2.366,2.466,2.386,2.386,0,0,0-2.366-2.466" transform="translate(581.369 7018.656)"/>
    <path id="Path_1599" data-name="Path 1599" class="cls-1" d="M206.329,245.1h.654v5.989h-.554l-3.825-4.933v4.933h-.7V245.1h.654l3.775,4.782Z" transform="translate(573.72 7018.556)"/>
    <path id="Path_1600" data-name="Path 1600" class="cls-1" d="M220.89,251.04h-.7l-.7-1.56h-3.272l-.7,1.56h-.7l2.718-6.04h.654Zm-3.07-5.234-1.359,3.07h2.718Z" transform="translate(567.313 7018.606)"/>
    <path id="Path_1601" data-name="Path 1601" class="cls-1" d="M232.469,249.429h0l-2.215-3.171v4.832H229.6V245.1h.7l2.164,3.272,2.164-3.272h.7v5.989h-.654v-4.832Z" transform="translate(559.962 7018.556)"/>
  </g>
</svg>
